<svg width="48" height="48" viewBox="0 0 48 48" fill="none" xmlns="http://www.w3.org/2000/svg">
<g clip-path="url(#clip0_16_2)">
<path d="M15 24.8625C15 25.6594 14.6812 26.4187 14.1187 26.9812L11.6062 29.4938C10.4531 30.6469 8.55937 30.5625 6.975 30.1687C6.54375 30.0562 6.09375 30 5.625 30C2.52187 30 0 32.5219 0 35.625C0 38.7281 2.52187 41.25 5.625 41.25C6.21562 41.25 6.75 41.7844 6.75 42.375C6.75 45.4781 9.27187 48 12.375 48C15.4781 48 18 45.4781 18 42.375C18 41.9062 17.9437 41.4562 17.8312 41.0156C17.4375 39.4313 17.3437 37.5375 18.5062 36.3844L21.0187 33.8719C21.5812 33.3094 22.3406 32.9906 23.1375 32.9906H31.5C32.0906 32.9906 32.6625 32.9625 33.2344 32.8969C34.35 32.7844 34.7719 31.4437 34.2469 30.4594C33.45 28.9781 33 27.2906 33 25.4906C33 19.6875 37.6969 14.9906 43.5 14.9906C44.25 14.9906 44.9719 15.0656 45.675 15.2156C46.7719 15.45 47.9344 14.6625 47.7375 13.5656C46.3594 5.85938 39.6094 0 31.5 0C22.3875 0 15 7.3875 15 16.5V24.8625Z" fill="white"/>
</g>
<defs>
<clipPath id="clip0_16_2">
<rect width="48" height="48" fill="white"/>
</clipPath>
</defs>
</svg>
